IKResults
version=1
nRows=11
nColumns=63
inDegrees=yes

Units are S.I. units (second, meters, Newtons, ...)
If the header above contains a line with 'inDegrees', this indicates whether rotational values are in degrees (yes) or radians (no).

endheader
time	pelvis_tilt	pelvis_list	pelvis_rotation	pelvis_tx	pelvis_ty	pelvis_tz	hip_flexion_r	hip_adduction_r	hip_rotation_r	knee_angle_r	knee_angle_r_beta	ankle_angle_r	subtalar_angle_r	mtp_angle_r	hip_flexion_l	hip_adduction_l	hip_rotation_l	knee_angle_l	knee_angle_l_beta	ankle_angle_l	subtalar_angle_l	mtp_angle_l	L5_S1_Flex_Ext	L5_S1_Lat_Bending	L5_S1_axial_rotation	L4_L5_Flex_Ext	L4_L5_Lat_Bending	L4_L5_axial_rotation	L3_L4_Flex_Ext	L3_L4_Lat_Bending	L3_L4_axial_rotation	L2_L3_Flex_Ext	L2_L3_Lat_Bending	L2_L3_axial_rotation	L1_L2_Flex_Ext	L1_L2_Lat_Bending	L1_L2_axial_rotation	L1_T12_Flex_Ext	L1_T12_Lat_Bending	L1_T12_axial_rotation	Abs_r3	Abs_r2	Abs_r1	Abs_t1	Abs_t2	neck_flexion	neck_bending	neck_rotation	arm_flex_r	arm_add_r	arm_rot_r	elbow_flex_r	pro_sup_r	wrist_flex_r	wrist_dev_r	arm_flex_l	arm_add_l	arm_rot_l	elbow_flex_l	pro_sup_l	wrist_flex_l	wrist_dev_l
      6.03333333	    -10.89376557	    116.85330481	   -116.71357132	     -0.42896234	      0.21893153	     -0.02218569	     38.78124018	      3.81577398	     10.72501747	      8.60148898	      0.15012430	      0.00000000	      0.00000000	      0.00000000	     32.59264243	    -14.15045370	    -36.61410049	      6.92422336	      0.12085050	      0.00000000	      0.00000000	      0.00000000	      5.44712570	     -1.00454466	     -1.57662231	     10.11585715	     -1.33604440	     -1.67516121	      8.94908282	     -2.44244990	     -1.67516121	      6.22551997	     -2.44244990	     -1.37954453	      5.05820093	     -2.04846748	     -1.28100563	      3.11248763	     -1.55603968	     -1.18246674	     38.90827420	    -11.36361015	     -8.76870033	      0.00000000	      0.00000000	     -7.88541910	     29.21141729	     44.82921151	     69.87397705	    -19.71614967	    145.42288304	      0.23607723	     89.99559364	      0.00000000	      0.00000000	    -90.97838549	    -40.12198056	   -141.47252408	     49.31687329	     89.99559364	      0.00000000	      0.00000000
      6.06666667	    -10.52999738	    116.95776680	   -116.55307022	     -0.42889275	      0.21760520	     -0.02219962	     38.63560158	      3.63886595	     10.71464519	      8.59674803	      0.15004156	      0.00000000	      0.00000000	      0.00000000	     32.67223669	    -14.05192329	    -36.59970757	      6.88315612	      0.12013374	      0.00000000	      0.00000000	      0.00000000	      5.45695948	     -1.00637803	     -1.62405173	     10.13411946	     -1.33848279	     -1.72555497	      8.96523874	     -2.44690755	     -1.72555497	      6.23675899	     -2.44690755	     -1.42104527	      5.06733258	     -2.05220609	     -1.31954203	      3.11810665	     -1.55887958	     -1.21803880	     38.97851590	    -11.38434960	     -9.03248852	      0.00000000	      0.00000000	     -7.93790608	     29.16792035	     44.83034442	     69.71861901	    -19.98237340	    145.41760532	      0.23259815	     89.99559364	      0.00000000	      0.00000000	    -90.99062174	    -40.37442406	   -141.38011657	     49.38439913	     89.99559364	      0.00000000	      0.00000000
      6.10000000	     -8.25459556	    117.18860168	   -116.81245331	     -0.42831785	      0.21515755	     -0.02221813	     37.87433346	      3.54406688	     10.59571669	      8.52714982	      0.14882684	      0.00000000	      0.00000000	      0.00000000	     33.12394911	    -14.27967132	    -36.85196397	      7.50231876	      0.13094016	      0.00000000	      0.00000000	      0.00000000	      5.40040304	     -0.97595527	     -1.96497676	     10.02908848	     -1.29802051	     -2.08778781	      8.87232215	     -2.37293764	     -2.08778781	      6.17212063	     -2.37293764	     -1.71935466	      5.01481426	     -1.99016799	     -1.59654362	      3.08579029	     -1.51175471	     -1.47373257	     38.57453884	    -11.04020121	    -10.92861124	      0.00000000	      0.00000000	     -8.05359526	     28.93659304	     44.83244864	     69.66983496	    -20.20600264	    145.42597111	      0.23065017	     89.99559364	      0.00000000	      0.00000000	    -90.73801322	    -40.47763204	   -141.23633295	     49.50949341	     89.99559364	      0.00000000	      0.00000000
      6.13333333	     -8.14616063	    117.17816609	   -116.83625088	     -0.42848669	      0.21456207	     -0.02220996	     37.90349634	      3.44517042	     10.59501222	      8.53337322	      0.14893546	      0.00000000	      0.00000000	      0.00000000	     33.07954297	    -14.26212124	    -36.82717432	      7.50678935	      0.13101819	      0.00000000	      0.00000000	      0.00000000	      5.40071378	     -0.97595665	     -1.96240054	     10.02966556	     -1.29802235	     -2.08505057	      8.87283267	     -2.37294100	     -2.08505057	      6.17247578	     -2.37294100	     -1.71710047	      5.01510282	     -1.99017080	     -1.59445044	      3.08596785	     -1.51175685	     -1.47180040	     38.57675847	    -11.04021683	    -10.91428308	      0.00000000	      0.00000000	     -8.04470342	     28.93535563	     44.83390649	     69.61069769	    -20.29019783	    145.41985405	      0.22731536	     89.99559364	      0.00000000	      0.00000000	    -90.76161835	    -40.53632908	   -141.24060225	     49.52247191	     89.99559364	      0.00000000	      0.00000000
      6.16666667	     -7.88490375	    117.14538104	   -116.87164149	     -0.42871324	      0.21347054	     -0.02210867	     37.79221066	      3.28954526	     10.59156009	      8.54002972	      0.14905164	      0.00000000	      0.00000000	      0.00000000	     33.01423664	    -14.21021558	    -36.82279786	      7.50990684	      0.13107260	      0.00000000	      0.00000000	      0.00000000	      5.39855572	     -0.97795052	     -1.96411224	     10.02565783	     -1.30067419	     -2.08686925	      8.86928719	     -2.37778888	     -2.08686925	      6.17000933	     -2.37778888	     -1.71859821	      5.01309884	     -1.99423669	     -1.59584119	      3.08473474	     -1.51484535	     -1.47308418	     38.56134366	    -11.06277183	    -10.92380304	      0.00000000	      0.00000000	     -8.09132954	     29.00208593	     44.83351687	     69.47340584	    -20.51770474	    145.40182790	      0.22498372	     89.99559364	      0.00000000	      0.00000000	    -90.81491696	    -40.75236347	   -141.23642349	     49.51682782	     89.99559364	      0.00000000	      0.00000000
      6.20000000	     -7.78821064	    117.09943633	   -116.92298611	     -0.42885128	      0.21291394	     -0.02208611	     37.84125968	      3.14513572	     10.59264850	      8.54320229	      0.14910701	      0.00000000	      0.00000000	      0.00000000	     33.00231308	    -14.15661280	    -36.81289636	      7.51850057	      0.13122259	      0.00000000	      0.00000000	      0.00000000	      5.39716266	     -0.97803659	     -1.96252711	     10.02307078	     -1.30078867	     -2.08518506	      8.86699853	     -2.37799818	     -2.08518506	      6.16841720	     -2.37799818	     -1.71721123	      5.01180525	     -1.99441222	     -1.59455328	      3.08393874	     -1.51497868	     -1.47189534	     38.55139316	    -11.06374556	    -10.91498705	      0.00000000	      0.00000000	     -8.13174093	     29.00151281	     44.83307511	     69.41410608	    -20.55620787	    145.39347409	      0.22377415	     89.99559364	      0.00000000	      0.00000000	    -90.87194541	    -40.76675915	   -141.26336836	     49.52431207	     89.99559364	      0.00000000	      0.00000000
      6.23333333	     -7.71357883	    117.04136648	   -116.97735139	     -0.42903867	      0.21228298	     -0.02206368	     37.85348674	      3.01687271	     10.59317841	      8.54620420	      0.14915940	      0.00000000	      0.00000000	      0.00000000	     33.00816729	    -14.08430372	    -36.80067834	      7.53212909	      0.13146045	      0.00000000	      0.00000000	      0.00000000	      5.39895740	     -0.97795453	     -1.96013708	     10.02640379	     -1.30067953	     -2.08264564	      8.86994711	     -2.37779865	     -2.08264564	      6.17046841	     -2.37779865	     -1.71511994	      5.01347184	     -1.99424488	     -1.59261137	      3.08496426	     -1.51485157	     -1.47010281	     38.56421281	    -11.06281727	    -10.90169438	      0.00000000	      0.00000000	     -8.18993730	     29.00255640	     44.83340236	     69.36548976	    -20.58302173	    145.38607344	      0.22278087	     89.99559364	      0.00000000	      0.00000000	    -90.92399105	    -40.76681852	   -141.28759849	     49.52925121	     89.99559364	      0.00000000	      0.00000000
      6.26666667	     -6.52217313	    116.17533641	   -117.06451927	     -0.42952612	      0.21000770	     -0.02086445	     36.44258945	      2.50185167	     10.54048542	      8.60214470	      0.15013575	      0.00000000	      0.00000000	      0.00000000	     32.20978291	    -13.69212612	    -36.76318142	      7.74142628	      0.13511338	      0.00000000	      0.00000000	      0.00000000	      5.24956963	     -1.03149009	     -2.11103721	      9.74897576	     -1.37188182	     -2.24297703	      8.62451795	     -2.50796501	     -2.24297703	      5.99973313	     -2.50796501	     -1.84715756	      4.87475036	     -2.10341460	     -1.71521773	      2.99960409	     -1.59777815	     -1.58327791	     37.49715091	    -11.66842222	    -11.74095565	      0.00000000	      0.00000000	     -8.66093802	     29.27131030	     44.83359505	     69.13421711	    -20.51082538	    144.91050399	      0.21661758	     89.99559364	      0.00000000	      0.00000000	    -91.14916871	    -40.94437919	   -141.64395690	     49.40409511	     89.99559364	      0.00000000	      0.00000000
      6.30000000	     -6.46198835	    116.04241645	   -117.23875738	     -0.42959522	      0.20991912	     -0.02079173	     36.49744904	      2.39870744	     10.53985134	      8.60822796	      0.15024192	      0.00000000	      0.00000000	      0.00000000	     32.22465758	    -13.62973045	    -36.73004000	      7.82962018	      0.13665265	      0.00000000	      0.00000000	      0.00000000	      5.23754083	     -1.02984239	     -2.10649887	      9.72663708	     -1.36969038	     -2.23815505	      8.60475583	     -2.50395880	     -2.23815505	      5.98598542	     -2.50395880	     -1.84318651	      4.86358042	     -2.10005461	     -1.71153033	      2.99273083	     -1.59522587	     -1.57987415	     37.41123041	    -11.64978312	    -11.71571478	      0.00000000	      0.00000000	     -8.83143067	     29.29115922	     44.83446030	     69.16349530	    -20.38927973	    144.87753386	      0.21861065	     89.99559364	      0.00000000	      0.00000000	    -91.17522291	    -40.82383648	   -141.68276261	     49.40007436	     89.99559364	      0.00000000	      0.00000000
      6.33333333	     -2.96976738	    115.55362535	   -119.00518044	     -0.43015813	      0.20843765	     -0.01975721	     34.86240699	      2.84597656	     10.31621643	      8.91097842	      0.15552591	      0.00000000	      0.00000000	      0.00000000	     31.90431903	    -14.29373332	    -36.94200510	      8.92914357	      0.15584295	      0.00000000	      0.00000000	      0.00000000	      5.02838007	     -0.98847999	     -2.43087042	      9.33820463	     -1.31467839	     -2.58279982	      8.26112562	     -2.40339026	     -2.58279982	      5.74693558	     -2.40339026	     -2.12701161	      4.66935373	     -2.01570840	     -1.97508221	      2.87321637	     -1.53115551	     -1.82315281	     35.91721600	    -11.18188339	    -13.51977199	      0.00000000	      0.00000000	     -8.90542444	     29.19683121	     44.83514413	     69.27467507	    -20.26061955	    143.74531848	      0.21776159	     89.99559364	      0.00000000	      0.00000000	    -90.92568959	    -40.76143152	   -141.77010239	     49.46697881	     89.99559364	      0.00000000	      0.00000000
      6.36666667	     -2.97828804	    115.37233457	   -119.21069677	     -0.43032058	      0.20861345	     -0.01961596	     34.92086425	      2.74784919	     10.31752946	      8.91454210	      0.15558811	      0.00000000	      0.00000000	      0.00000000	     31.90634550	    -14.20348947	    -36.89724672	      8.99045688	      0.15691307	      0.00000000	      0.00000000	      0.00000000	      5.01394447	     -0.99031771	     -2.42372321	      9.31139628	     -1.31712255	     -2.57520592	      8.23740937	     -2.40785847	     -2.57520592	      5.73043714	     -2.40785847	     -2.12075781	      4.65594884	     -2.01945587	     -1.96927511	      2.86496787	     -1.53400213	     -1.81779241	     35.81410396	    -11.20267195	    -13.48002140	      0.00000000	      0.00000000	     -9.11643788	     29.20652899	     44.83612053	     69.31678626	    -20.03277126	    143.74800362	      0.21985810	     89.99559364	      0.00000000	      0.00000000	    -90.99933320	    -40.54722245	   -141.84217645	     49.45738766	     89.99559364	      0.00000000	      0.00000000
